<svg viewBox="0 0 400 400" xmlns="http://www.w3.org/2000/svg">
    <defs>
        <linearGradient id="bgGradient" x1="0%" y1="0%" x2="100%" y2="100%">
            <stop offset="0%" style="stop-color:#667eea;stop-opacity:1"></stop>
            <stop offset="100%" style="stop-color:#764ba2;stop-opacity:1"></stop>
        </linearGradient>
        <linearGradient id="circuitGradient" x1="0%" y1="0%" x2="100%" y2="100%">
            <stop offset="0%" style="stop-color:#00f5ff;stop-opacity:0.8"></stop>
            <stop offset="100%" style="stop-color:#0099ff;stop-opacity:0.8"></stop>
        </linearGradient>
        <filter id="glow">
            <feGaussianBlur stdDeviation="3" result="coloredBlur"></feGaussianBlur>
            <feMerge>
                <feMergeNode in="coloredBlur"></feMergeNode>
                <feMergeNode in="SourceGraphic"></feMergeNode>
            </feMerge>
        </filter>
    </defs>
    <circle cx="200" cy="200" r="190" fill="url(#bgGradient)" stroke="#ffffff" stroke-width="4"></circle>
    <g stroke="url(#circuitGradient)" stroke-width="2" fill="none" opacity="0.3">
        <line x1="50" y1="120" x2="350" y2="120"></line>
        <line x1="50" y1="160" x2="350" y2="160"></line>
        <line x1="50" y1="240" x2="350" y2="240"></line>
        <line x1="50" y1="280" x2="350" y2="280"></line>
        <line x1="100" y1="80" x2="100" y2="320"></line>
        <line x1="150" y1="80" x2="150" y2="320"></line>
        <line x1="250" y1="80" x2="250" y2="320"></line>
        <line x1="300" y1="80" x2="300" y2="320"></line>
        <circle cx="100" cy="120" r="3" fill="url(#circuitGradient)"></circle>
        <circle cx="150" cy="160" r="3" fill="url(#circuitGradient)"></circle>
        <circle cx="250" cy="240" r="3" fill="url(#circuitGradient)"></circle>
        <circle cx="300" cy="280" r="3" fill="url(#circuitGradient)"></circle>
    </g>
    <g fill="white" filter="url(#glow)">
        <rect x="185" y="140" width="30" height="50" rx="15" ry="15"></rect>
        <rect x="198" y="190" width="4" height="40"></rect>
        <ellipse cx="200" cy="235" rx="20" ry="5"></ellipse>
        <path d="M 230 160 Q 240 170 230 180" stroke="white" stroke-width="3" fill="none" opacity="0.7"></path>
        <path d="M 240 150 Q 255 170 240 190" stroke="white" stroke-width="3" fill="none" opacity="0.5"></path>
        <path d="M 170 160 Q 160 170 170 180" stroke="white" stroke-width="3" fill="none" opacity="0.7"></path>
        <path d="M 160 150 Q 145 170 160 190" stroke="white" stroke-width="3" fill="none" opacity="0.5"></path>
    </g>
    <g fill="white" opacity="0.9">
        <circle cx="140" cy="110" r="25" fill="none" stroke="white" stroke-width="3"></circle>
        <line x1="140" y1="110" x2="140" y2="95" stroke="white" stroke-width="3"></line>
        <line x1="140" y1="110" x2="155" y2="110" stroke="white" stroke-width="2"></line>
        <text x="165" y="90" font-family="Arial Black" font-size="16" fill="white" font-weight="bold">5</text>
    </g>
    <g fill="white" opacity="0.8">
        <circle cx="260" cy="290" r="20" fill="none" stroke="white" stroke-width="2"></circle>
        <circle cx="250" cy="285" r="2" fill="white"></circle>
        <circle cx="270" cy="285" r="2" fill="white"></circle>
        <circle cx="260" cy="295" r="2" fill="white"></circle>
        <line x1="250" y1="285" x2="270" y2="285" stroke="white" stroke-width="1"></line>
        <line x1="250" y1="285" x2="260" y2="295" stroke="white" stroke-width="1"></line>
        <line x1="270" y1="285" x2="260" y2="295" stroke="white" stroke-width="1"></line>
    </g>
    <text x="200" y="310" text-anchor="middle" font-family="Arial Black" font-size="24" fill="white" font-weight="bold">5 MINUTE</text>
    <text x="200" y="340" text-anchor="middle" font-family="Arial Black" font-size="28" fill="#00f5ff" font-weight="bold">AI NEWS</text>
    <g stroke="#00f5ff" stroke-width="2" fill="none" opacity="0.6">
        <path d="M 50 360 Q 80 350 110 360 T 170 360 T 230 360 T 290 360 T 350 360"></path>
        <path d="M 50 370 Q 80 365 110 370 T 170 370 T 230 370 T 290 370 T 350 370"></path>
    </g>
</svg>
